<svg xmlns="http://www.w3.org/2000/svg" width="31.002" height="31" viewBox="0 0 31.002 31"><defs><style>.a{fill:none;stroke:#fff;}</style></defs><g transform="translate(0.5 0.488)"><path class="a" d="M3.852.012h22.3A3.861,3.861,0,0,1,30,3.863v22.3a3.86,3.86,0,0,1-3.851,3.849H3.852A3.862,3.862,0,0,1,0,26.163V3.863A3.863,3.863,0,0,1,3.852.012Zm18,3.332A1.355,1.355,0,0,0,20.506,4.7V7.928A1.354,1.354,0,0,0,21.856,9.28h3.391A1.355,1.355,0,0,0,26.6,7.928V4.7a1.356,1.356,0,0,0-1.351-1.353H21.856ZM26.611,12.7h-2.64a8.772,8.772,0,0,1,.386,2.576,9.186,9.186,0,0,1-9.327,9.035A9.186,9.186,0,0,1,5.7,15.275,8.812,8.812,0,0,1,6.089,12.7H3.335V25.373a1.193,1.193,0,0,0,1.192,1.19H25.419a1.192,1.192,0,0,0,1.191-1.19ZM15.03,9.109a5.934,5.934,0,0,0-6.024,5.839,5.935,5.935,0,0,0,6.024,5.838,5.935,5.935,0,0,0,6.026-5.838A5.934,5.934,0,0,0,15.03,9.109Z"/></g></svg>